# Blender 5.2.1 LTS
# www.blender.org
mtllib band mag wildcat.mtl
o RenderMesh_85569047699564
v -0.411325 0.039127 0.114580
v -0.394349 0.080493 0.129247
v -0.399846 0.081966 0.114580
v -0.405828 0.037654 0.129247
v -0.411325 0.039127 -0.114579
v -0.188824 -0.020493 0.129247
v -0.399846 0.081966 -0.114579
v -0.177344 0.022347 0.129247
v -0.394349 0.080493 -0.129247
v -0.171848 0.020874 0.114580
v -0.405828 0.037654 -0.129247
v -0.183327 -0.021966 0.114580
v -0.188824 -0.020493 -0.129247
v -0.171848 0.020874 -0.114579
v -0.177344 0.022347 -0.129247
v -0.183327 -0.021966 -0.114579
v -0.428153 -0.020873 0.114580
v -0.411177 0.020494 0.129247
v -0.416674 0.021966 0.114580
v -0.422656 -0.022346 0.129247
v -0.428153 -0.020873 -0.114579
v -0.194172 -0.037653 0.129247
v -0.416674 0.021966 -0.114579
v -0.205652 -0.080493 0.129247
v -0.411177 0.020494 -0.129247
v -0.188676 -0.039127 0.114580
v -0.422656 -0.022346 -0.129247
v -0.200155 -0.081965 0.114580
v -0.194174 -0.037652 -0.129247
v -0.188676 -0.039127 -0.114579
v -0.205652 -0.080492 -0.129247
v -0.200155 -0.081965 -0.114579
vn -0.9525 0.2553 0.1658
vn -0.7393 0.1981 0.6435
vn -0.9548 0.2559 0.1510
vn -0.6665 0.1789 0.7237
vn -0.9526 0.2553 -0.1653
vn 0.7393 -0.1981 0.6436
vn -0.9549 0.2554 -0.1513
vn 0.6666 -0.1784 0.7238
vn -0.7395 0.1986 -0.6432
vn 0.9527 -0.2548 0.1658
vn -0.6664 0.1786 -0.7239
vn 0.9549 -0.2559 0.1510
vn 0.7396 -0.1980 -0.6432
vn 0.9528 -0.2548 -0.1653
vn 0.6663 -0.1786 -0.7239
vn 0.9548 -0.2558 -0.1513
vn 0.6663 -0.1785 -0.7240
vn 0.7396 -0.1980 -0.6433
vt 0.000000 0.000000
s 1
f 1/1/1 2/1/2 3/1/3
f 2/1/2 1/1/1 4/1/4
f 5/1/5 1/1/1 3/1/3
f 6/1/6 2/1/2 4/1/4
f 3/1/3 7/1/7 5/1/5
f 2/1/2 6/1/6 8/1/8
f 9/1/9 5/1/5 7/1/7
f 6/1/6 10/1/10 8/1/8
f 9/1/9 11/1/11 5/1/5
f 10/1/10 6/1/6 12/1/12
f 13/1/13 11/1/11 9/1/9
f 12/1/12 14/1/14 10/1/10
f 9/1/9 15/1/15 13/1/13
f 13/1/13 15/1/15 14/1/14
f 14/1/14 12/1/12 16/1/16
f 13/1/13 14/1/14 16/1/16
f 17/1/1 18/1/2 19/1/3
f 18/1/2 17/1/1 20/1/4
f 21/1/5 17/1/1 19/1/3
f 22/1/8 18/1/2 20/1/4
f 19/1/3 23/1/7 21/1/5
f 20/1/4 24/1/6 22/1/8
f 25/1/9 21/1/5 23/1/7
f 24/1/6 26/1/10 22/1/8
f 25/1/9 27/1/11 21/1/5
f 26/1/10 24/1/6 28/1/12
f 29/1/17 27/1/11 25/1/9
f 28/1/12 30/1/14 26/1/10
f 27/1/11 29/1/17 31/1/18
f 31/1/18 29/1/17 30/1/14
f 30/1/14 28/1/12 32/1/16
f 31/1/18 30/1/14 32/1/16
