# Blender 5.2.1 LTS
# www.blender.org
mtllib wild cat mag 1 .mtl
o RenderMesh_95562281570535
v -0.305004 -0.429095 0.062280
v -0.520713 -0.371296 -0.062280
v -0.305004 -0.429095 -0.062280
v -0.520713 -0.371296 0.062280
v -0.079287 0.364799 -0.062280
v -0.319242 0.429095 -0.062280
v -0.319242 0.429095 0.062280
v -0.079287 0.364799 0.062280
v -0.327159 0.351056 -0.062280
v -0.520713 -0.371296 -0.062280
v -0.520713 -0.371296 0.062280
v -0.327159 0.351056 0.062280
v -0.332468 0.379733 0.062280
v -0.332468 0.379733 -0.062280
v -0.319242 0.429095 0.062280
v -0.319242 0.429095 -0.062280
v -0.305004 -0.429095 -0.062280
v -0.111449 0.293257 -0.062280
v -0.111449 0.293257 0.062280
v -0.305004 -0.429095 0.062280
v -0.092514 0.315438 -0.062280
v -0.092514 0.315438 0.062280
v -0.079287 0.364799 -0.062280
v -0.079287 0.364799 0.062280
v -0.305004 -0.429095 0.062280
v -0.327159 0.351056 0.062280
v -0.520713 -0.371296 0.062280
v -0.111449 0.293257 0.062280
v -0.092514 0.315438 0.062280
v -0.332468 0.379733 0.062280
v -0.079287 0.364799 0.062280
v -0.319242 0.429095 0.062280
v -0.305004 -0.429095 -0.062280
v -0.327159 0.351056 -0.062280
v -0.111449 0.293257 -0.062280
v -0.520713 -0.371296 -0.062280
v -0.092514 0.315438 -0.062280
v -0.332468 0.379733 -0.062280
v -0.079287 0.364799 -0.062280
v -0.319242 0.429095 -0.062280
vn -0.2587 -0.9660 0.0003
vn -0.2586 -0.9660 0.0004
vn 0.2591 0.9658 0.0003
vn 0.2592 0.9658 0.0004
vn 0.2593 0.9658 0.0005
vn -0.9992 0.0404 0.0005
vn -0.9658 0.2593 0.0006
vn -0.9658 0.2592 0.0005
vn -0.9992 0.0403 0.0005
vn 0.9660 -0.2586 0.0005
vn 0.8797 -0.4755 0.0005
vn 0.9660 -0.2586 0.0006
vn 0.9660 -0.2587 0.0004
vn 0.0003 0.0004 1.0000
vn 0.0003 0.0004 -1.0000
vt 0.000000 0.000000
s 1
f 1/1/1 2/1/1 3/1/2
f 2/1/1 1/1/1 4/1/1
f 5/1/3 6/1/4 7/1/4
f 5/1/3 7/1/4 8/1/5
f 9/1/6 10/1/7 11/1/8
f 9/1/6 11/1/8 12/1/6
f 9/1/6 12/1/6 13/1/6
f 13/1/6 14/1/9 9/1/6
f 14/1/9 13/1/6 15/1/7
f 15/1/7 16/1/7 14/1/9
f 17/1/10 18/1/11 19/1/11
f 17/1/10 19/1/11 20/1/12
f 21/1/11 19/1/11 18/1/11
f 19/1/11 21/1/11 22/1/11
f 23/1/13 22/1/11 21/1/11
f 22/1/11 23/1/13 24/1/13
f 25/1/14 26/1/14 27/1/14
f 26/1/14 25/1/14 28/1/14
f 26/1/14 28/1/14 29/1/14
f 29/1/14 30/1/14 26/1/14
f 30/1/14 29/1/14 31/1/14
f 31/1/14 32/1/14 30/1/14
f 33/1/15 34/1/15 35/1/15
f 34/1/15 33/1/15 36/1/15
f 34/1/15 37/1/15 35/1/15
f 37/1/15 34/1/15 38/1/15
f 38/1/15 39/1/15 37/1/15
f 39/1/15 38/1/15 40/1/15
