# Blender 5.2.1 LTS
# www.blender.org
mtllib wild cat mag 2 .mtl
o RenderMesh_83070615292783
v -0.294996 0.429095 -0.062280
v -0.294996 0.429095 0.062280
v -0.079287 0.371296 -0.062280
v -0.079287 0.371296 0.062280
v -0.520713 -0.364799 -0.062280
v -0.280758 -0.429095 -0.062280
v -0.280758 -0.429095 0.062280
v -0.520713 -0.364799 0.062280
v -0.272841 -0.351056 -0.062280
v -0.079287 0.371296 -0.062280
v -0.079287 0.371296 0.062280
v -0.272841 -0.351056 0.062280
v -0.267532 -0.379733 0.062280
v -0.267532 -0.379733 -0.062280
v -0.280758 -0.429095 0.062280
v -0.280758 -0.429095 -0.062280
v -0.294996 0.429095 -0.062280
v -0.488551 -0.293257 -0.062280
v -0.488551 -0.293257 0.062280
v -0.294996 0.429095 0.062280
v -0.507487 -0.315438 -0.062280
v -0.507487 -0.315438 0.062280
v -0.520713 -0.364799 -0.062280
v -0.520713 -0.364799 0.062280
v -0.294996 0.429095 0.062280
v -0.488551 -0.293257 0.062280
v -0.272841 -0.351056 0.062280
v -0.079287 0.371296 0.062280
v -0.267532 -0.379733 0.062280
v -0.507487 -0.315438 0.062280
v -0.520713 -0.364799 0.062280
v -0.280758 -0.429095 0.062280
v -0.272841 -0.351056 -0.062280
v -0.294996 0.429095 -0.062280
v -0.079287 0.371296 -0.062280
v -0.488551 -0.293257 -0.062280
v -0.507487 -0.315438 -0.062280
v -0.267532 -0.379733 -0.062280
v -0.520713 -0.364799 -0.062280
v -0.280758 -0.429095 -0.062280
vn 0.2593 0.9658 0.0005
vn 0.2592 0.9658 0.0004
vn -0.2587 -0.9660 0.0003
vn -0.2586 -0.9660 0.0004
vn -0.2586 -0.9660 0.0005
vn 0.9992 -0.0407 0.0005
vn 0.9660 -0.2586 0.0004
vn 0.9992 -0.0406 0.0005
vn 0.9660 -0.2586 0.0005
vn 0.9660 -0.2586 0.0006
vn -0.9658 0.2593 0.0006
vn -0.8799 0.4752 0.0005
vn -0.9658 0.2594 0.0006
vn -0.8799 0.4751 0.0005
vn -0.9658 0.2593 0.0005
vn -0.9658 0.2592 0.0004
vn 0.0003 0.0003 1.0000
vn 0.0003 0.0003 -1.0000
vt 0.000000 0.000000
s 1
f 1/1/1 2/1/2 3/1/2
f 3/1/2 2/1/2 4/1/2
f 5/1/3 6/1/4 7/1/4
f 5/1/3 7/1/4 8/1/5
f 9/1/6 10/1/7 11/1/7
f 9/1/6 11/1/7 12/1/6
f 9/1/6 12/1/6 13/1/8
f 13/1/8 14/1/8 9/1/6
f 14/1/8 13/1/8 15/1/9
f 15/1/9 16/1/10 14/1/8
f 17/1/11 18/1/12 19/1/12
f 17/1/11 19/1/12 20/1/13
f 21/1/12 19/1/12 18/1/12
f 19/1/12 21/1/12 22/1/14
f 23/1/15 22/1/14 21/1/12
f 22/1/14 23/1/15 24/1/16
f 25/1/17 26/1/17 27/1/17
f 27/1/17 28/1/17 25/1/17
f 26/1/17 29/1/17 27/1/17
f 29/1/17 26/1/17 30/1/17
f 31/1/17 29/1/17 30/1/17
f 29/1/17 31/1/17 32/1/17
f 33/1/18 34/1/18 35/1/18
f 34/1/18 33/1/18 36/1/18
f 33/1/18 37/1/18 36/1/18
f 37/1/18 33/1/18 38/1/18
f 38/1/18 39/1/18 37/1/18
f 39/1/18 38/1/18 40/1/18
