# Blender 5.2.1 LTS
# www.blender.org
mtllib wildcat body modified.mtl
o RenderMesh_83884702080665
v 1.329395 0.316464 0.135623
v 1.329395 0.446397 0.084224
v 1.329395 0.381324 0.135623
v 1.329395 0.316464 -0.135623
v 1.329395 0.446397 -0.084224
v 1.329395 0.381324 -0.135623
v 1.329395 0.251605 -0.135623
v 1.329395 0.251605 0.135623
v -0.248242 -0.235254 -0.064512
v -0.007062 -0.347717 -0.064512
v -0.007062 -0.347717 0.064512
v -0.248242 -0.235254 0.064512
v -0.863587 0.355739 -0.082530
v -1.329395 0.300264 -0.121896
v -1.329395 0.355739 -0.082530
v -0.846791 0.300264 -0.121896
v -1.329395 0.355739 0.082530
v -0.626791 0.380264 -0.121896
v -0.863587 0.355739 0.082530
v -1.329395 0.300264 0.121896
v -0.846791 0.300264 0.121896
v -0.626791 0.380264 0.121896
v -0.643587 0.435739 -0.082530
v -0.643587 0.435739 0.082530
v -0.493587 0.435739 0.082530
v -0.493587 0.380264 0.121896
v -0.493587 0.435739 -0.082530
v -0.493587 0.380264 -0.121896
v 0.999362 0.446397 -0.084224
v 1.141942 0.446397 -0.084224
v 1.141942 0.381324 -0.135623
v 0.999362 0.381324 -0.135623
v 1.329395 0.381324 -0.135623
v 1.329395 0.446397 -0.084224
v -0.448658 0.446397 -0.084224
v -0.448659 0.381324 -0.135623
v 0.999362 0.446397 0.084224
v -0.448658 0.446397 0.084224
v 1.141942 0.446397 0.084224
v 1.329395 0.446397 0.084224
v 0.999362 0.381324 0.135623
v -0.448659 0.381324 0.135623
v 1.141942 0.381324 0.135623
v 1.329395 0.381324 0.135623
v 1.321461 0.161399 -0.120000
v 1.321461 0.324766 -0.120000
v 1.321461 0.161399 0.120000
v 1.321461 0.324766 0.120000
v 1.253706 0.101399 0.120000
v 1.253706 0.101399 -0.120000
v 0.691132 0.101399 -0.120000
v 0.691132 0.101399 0.120000
v 0.608268 0.030425 -0.120000
v 0.608268 0.030425 0.120000
v 0.458022 -0.350942 -0.120000
v 0.458022 -0.350942 0.120000
v 0.373347 -0.396397 0.120000
v 0.373347 -0.396397 -0.120000
v -0.011732 -0.396397 -0.120000
v -0.011732 -0.396397 0.120000
v -0.041732 -0.350942 -0.120000
v -0.041732 -0.350942 0.120000
v -0.001732 -0.261867 -0.120000
v -0.001732 -0.261867 0.120000
v 0.091678 -0.221867 -0.120000
v 0.091678 -0.221867 0.120000
v 0.218268 -0.011867 -0.120000
v 0.218268 -0.011867 0.120000
v 0.218268 0.324766 -0.120000
v 0.218268 0.324766 0.120000
v -0.205708 -0.130531 -0.121182
v -0.066979 0.242192 -0.121182
v -0.205708 -0.130531 0.121182
v -0.066979 0.242192 0.121182
v -0.146816 -0.202043 0.121182
v -0.146816 -0.202043 -0.121182
v -0.150640 -0.251757 0.121182
v -0.150640 -0.251757 -0.121182
v -0.188117 -0.277761 0.121182
v -0.188117 -0.277761 -0.121182
v -0.462355 -0.154850 0.121182
v -0.462355 -0.154850 -0.121182
v -0.472267 -0.099342 0.121182
v -0.472267 -0.099342 -0.121182
v -0.374851 0.133884 0.121182
v -0.374851 0.133884 -0.121182
v -0.331426 0.242192 0.121182
v -0.331426 0.242192 -0.121182
v 1.141942 0.381324 0.135623
v 0.999362 0.381324 0.135623
v 1.141942 0.316464 0.135623
v 1.329395 0.381324 0.135623
v 1.329395 0.316464 0.135623
v 1.329395 0.251605 0.135623
v 1.141942 0.251605 0.135623
v 0.999362 0.286663 0.135623
v -0.448659 0.381324 0.135623
v 0.999362 0.192002 0.135623
v -0.448659 0.286663 0.135623
v -0.448659 0.192002 0.135623
v 0.999362 0.381324 -0.135623
v 1.141942 0.316464 -0.135623
v 0.999362 0.286663 -0.135623
v 1.141942 0.381324 -0.135623
v 1.329395 0.381324 -0.135623
v 1.329395 0.316464 -0.135623
v 1.141942 0.251605 -0.135623
v 1.329395 0.251605 -0.135623
v 0.999362 0.192002 -0.135623
v -0.448659 0.192002 -0.135623
v -0.448659 0.286663 -0.135623
v -0.448659 0.381324 -0.135623
v -0.643587 0.195430 -0.121896
v -0.846791 0.300264 -0.121896
v -0.626791 0.380264 -0.121896
v -0.493587 0.195430 -0.121896
v -0.493587 0.380264 -0.121896
v -0.863587 0.125430 -0.121896
v -1.079396 0.125430 -0.121896
v -1.329395 0.300264 -0.121896
v -1.159396 0.055430 -0.121896
v -1.329395 -0.354261 -0.121896
v -1.159396 -0.234570 -0.121896
v -1.159396 -0.354261 -0.121896
v -1.129396 -0.314570 -0.121896
v -1.329395 0.300264 0.121896
v -1.329395 -0.354261 0.121896
v -1.159396 0.055430 0.121896
v -1.159396 -0.234570 0.121896
v -1.159396 -0.354261 0.121896
v -1.129396 -0.314570 0.121896
v -1.079396 0.125430 0.121896
v -0.846791 0.300264 0.121896
v -0.863587 0.125430 0.121896
v -0.643587 0.195430 0.121896
v -0.626791 0.380264 0.121896
v -0.493587 0.195430 0.121896
v -0.493587 0.380264 0.121896
v -0.462355 -0.154850 0.121182
v -0.205708 -0.130531 0.121182
v -0.472267 -0.099342 0.121182
v -0.374851 0.133884 0.121182
v -0.188117 -0.277761 0.121182
v -0.066979 0.242192 0.121182
v -0.331426 0.242192 0.121182
v -0.146816 -0.202043 0.121182
v -0.150640 -0.251757 0.121182
v -0.146816 -0.202043 -0.121182
v -0.188117 -0.277761 -0.121182
v -0.205708 -0.130531 -0.121182
v -0.150640 -0.251757 -0.121182
v -0.462355 -0.154850 -0.121182
v -0.472267 -0.099342 -0.121182
v -0.374851 0.133884 -0.121182
v -0.066979 0.242192 -0.121182
v -0.331426 0.242192 -0.121182
v -0.011732 -0.396397 -0.120000
v 0.091678 -0.221867 -0.120000
v 0.373347 -0.396397 -0.120000
v -0.001732 -0.261867 -0.120000
v -0.041732 -0.350942 -0.120000
v 0.218268 -0.011867 -0.120000
v 0.458022 -0.350942 -0.120000
v 0.608268 0.030425 -0.120000
v 0.218268 0.324766 -0.120000
v 0.691132 0.101399 -0.120000
v 1.321461 0.324766 -0.120000
v 1.253706 0.101399 -0.120000
v 1.321461 0.161399 -0.120000
v 0.691132 0.101399 0.120000
v 1.253706 0.101399 0.120000
v 1.321461 0.324766 0.120000
v 1.321461 0.161399 0.120000
v 0.218268 0.324766 0.120000
v 0.608268 0.030425 0.120000
v 0.218268 -0.011867 0.120000
v 0.458022 -0.350942 0.120000
v 0.373347 -0.396397 0.120000
v 0.091678 -0.221867 0.120000
v -0.011732 -0.396397 0.120000
v -0.001732 -0.261867 0.120000
v -0.041732 -0.350942 0.120000
v -0.007062 -0.347717 -0.064512
v -0.222885 -0.180875 -0.064512
v 0.018295 -0.293339 -0.064512
v -0.248242 -0.235254 -0.064512
v -0.248242 -0.235254 0.064512
v -0.007062 -0.347717 0.064512
v -0.222885 -0.180875 0.064512
v 0.018295 -0.293339 0.064512
v 1.141942 0.251605 -0.135623
v 1.141942 0.251605 0.135623
v 0.999362 0.192002 -0.135623
v 1.329395 0.251605 0.135623
v 1.329395 0.251605 -0.135623
v 0.999362 0.192002 0.135623
v -0.448659 0.192002 0.135623
v -0.448659 0.192002 -0.135623
v 0.018295 -0.293339 -0.064512
v -0.222885 -0.180875 -0.064512
v -0.222885 -0.180875 0.064512
v 0.018295 -0.293339 0.064512
v -0.643587 0.195430 -0.121896
v -0.493587 0.195430 -0.121896
v -0.643587 0.195430 0.121896
v -0.493587 0.195430 0.121896
v -0.863587 0.125430 -0.121896
v -0.863587 0.125430 0.121896
v -1.079396 0.125430 -0.121896
v -1.079396 0.125430 0.121896
v -1.159396 0.055430 -0.121896
v -1.159396 0.055430 0.121896
v -1.159396 -0.234570 -0.121896
v -1.159396 -0.234570 0.121896
v -1.129396 -0.314570 -0.121896
v -1.129396 -0.314570 0.121896
v -1.159396 -0.354261 -0.121896
v -1.159396 -0.354261 0.121896
v -1.329395 -0.354261 -0.121896
v -1.329395 -0.354261 0.121896
vn 1.0000 0.0005 0.0005
vn -0.4226 -0.9063 0.0007
vn -0.4226 -0.9063 0.0005
vn -0.1472 0.8598 -0.4889
vn 0.0004 0.5789 -0.8154
vn 0.0005 0.8886 -0.4587
vn -0.1032 0.5546 -0.8257
vn 0.0004 0.8886 0.4587
vn -0.0913 0.5575 -0.8252
vn -0.1472 0.8598 0.4889
vn 0.0004 0.5789 0.8154
vn -0.1032 0.5546 0.8257
vn -0.0913 0.5575 0.8252
vn -0.1577 0.8806 -0.4469
vn -0.1578 0.8806 0.4469
vn 0.0005 0.8886 0.4587
vn 0.0003 0.5788 0.8154
vn 0.0003 0.5788 -0.8154
vn -0.0005 0.8999 -0.4360
vn 0.0005 0.8994 -0.4371
vn 0.0003 0.6198 -0.7848
vn 0.0005 0.6197 -0.7848
vn -0.0000 0.9000 -0.4360
vn 0.0005 0.8999 -0.4360
vn -0.0000 0.6198 -0.7847
vn 0.0004 0.8998 0.4364
vn 0.0005 0.8994 0.4372
vn 0.0015 0.8999 0.4360
vn 0.0005 0.8999 0.4360
vn 0.0003 0.6198 0.7848
vn -0.0000 0.6198 0.7847
vn 0.0005 0.6191 0.7853
vn 0.9118 -0.4106 0.0003
vn 0.3540 -0.9352 0.0005
vn 0.3541 -0.9352 0.0005
vn 0.3468 -0.9379 -0.0000
vn 0.3466 -0.9380 0.0005
vn 0.8145 -0.5801 -0.0000
vn 0.8146 -0.5800 0.0005
vn 0.7470 -0.6649 0.0005
vn 0.7470 -0.6648 0.0004
vn 0.2438 -0.9698 0.0005
vn -0.4742 -0.8804 0.0006
vn -0.4742 -0.8804 0.0005
vn -0.9967 -0.0806 0.0003
vn -0.9967 -0.0806 0.0005
vn -0.7009 0.7133 -0.0000
vn -0.7007 0.7134 0.0004
vn -0.6570 0.7539 0.0004
vn -0.6571 0.7538 0.0006
vn -0.9634 0.2681 0.0005
vn -1.0000 0.0005 0.0005
vn 0.9862 0.1656 0.0006
vn 0.9374 -0.3483 0.0004
vn 0.9862 0.1656 0.0005
vn 0.9535 0.3015 0.0004
vn 0.9534 0.3016 0.0005
vn 0.8677 -0.4971 0.0005
vn 0.8676 -0.4973 -0.0000
vn 0.0923 -0.9957 0.0005
vn 0.0924 -0.9957 0.0003
vn -0.7883 -0.6153 0.0005
vn -0.7883 -0.6153 0.0004
vn -0.9940 0.1091 0.0003
vn -0.9940 0.1089 0.0005
vn -0.9256 0.3786 0.0004
vn -0.9284 0.3717 0.0005
vn -0.9284 0.3716 0.0005
vn 0.0005 0.0005 1.0000
vn 0.0003 0.0003 1.0000
vn 0.1391 -0.0269 0.9899
vn 0.1001 -0.1001 0.9899
vn 0.0005 0.0005 -1.0000
vn -0.0003 -0.0003 -1.0000
vn 0.0003 0.0003 -1.0000
vn 0.0015 0.0005 -1.0000
vn -0.0542 -0.1313 -0.9899
vn -0.1421 0.0005 -0.9899
vn 0.0004 0.0004 1.0000
vn 0.0004 0.0004 -1.0000
vn 0.1969 -0.9804 0.0005
vn 0.1968 -0.9804 0.0003
vn 0.2700 -0.9536 -0.1332
vn 0.0005 -1.0000 0.0005
vn 0.0640 -0.9950 0.0767
vn -0.1001 -0.9899 -0.1001
vn 0.0005 -0.9899 -0.1421
vn 0.4226 0.9063 0.0006
vn 0.4226 0.9063 0.0005
vn 0.1529 -0.9882 0.0005
vn 0.1530 -0.9882 0.0004
vn 0.3512 -0.9363 0.0004
vn 0.3512 -0.9363 0.0005
vn 0.9108 -0.4128 0.0004
vn 0.9109 -0.4127 0.0005
vn 0.9840 0.1783 0.0003
vn 0.9840 0.1783 0.0005
vn 0.9896 -0.1441 0.0005
vn 0.4451 -0.8955 0.0005
vn 0.4452 -0.8954 0.0004
vt 0.000000 0.000000
s 1
f 1/1/1 2/1/1 3/1/1
f 4/1/1 2/1/1 1/1/1
f 2/1/1 4/1/1 5/1/1
f 5/1/1 4/1/1 6/1/1
f 4/1/1 1/1/1 7/1/1
f 7/1/1 1/1/1 8/1/1
f 9/1/2 10/1/3 11/1/2
f 9/1/2 11/1/2 12/1/3
f 13/1/4 14/1/5 15/1/6
f 14/1/5 13/1/4 16/1/7
f 13/1/4 15/1/6 17/1/8
f 18/1/9 16/1/7 13/1/4
f 13/1/4 17/1/8 19/1/10
f 20/1/11 19/1/10 17/1/8
f 20/1/11 21/1/12 19/1/10
f 22/1/13 19/1/10 21/1/12
f 23/1/14 13/1/4 19/1/10
f 13/1/4 23/1/14 18/1/9
f 19/1/10 22/1/13 24/1/15
f 23/1/14 19/1/10 24/1/15
f 25/1/16 24/1/15 22/1/13
f 22/1/13 26/1/17 25/1/16
f 27/1/6 24/1/15 25/1/16
f 27/1/6 23/1/14 24/1/15
f 27/1/6 18/1/9 23/1/14
f 18/1/9 27/1/6 28/1/18
f 29/1/19 30/1/20 31/1/21
f 29/1/19 31/1/21 32/1/22
f 30/1/20 33/1/21 31/1/21
f 30/1/20 34/1/23 33/1/21
f 32/1/22 35/1/24 29/1/19
f 35/1/24 32/1/22 36/1/25
f 35/1/24 37/1/26 29/1/19
f 37/1/26 30/1/20 29/1/19
f 37/1/26 35/1/24 38/1/27
f 30/1/20 39/1/28 34/1/23
f 30/1/20 37/1/26 39/1/28
f 34/1/23 39/1/28 40/1/29
f 37/1/26 38/1/27 41/1/30
f 41/1/30 39/1/28 37/1/26
f 42/1/31 41/1/30 38/1/27
f 41/1/30 43/1/32 39/1/28
f 43/1/32 40/1/29 39/1/28
f 43/1/32 44/1/30 40/1/29
f 45/1/33 46/1/1 47/1/33
f 46/1/1 48/1/1 47/1/33
f 45/1/33 47/1/33 49/1/34
f 49/1/34 50/1/35 45/1/33
f 49/1/34 51/1/36 50/1/35
f 51/1/36 49/1/34 52/1/37
f 51/1/36 52/1/37 53/1/38
f 53/1/38 52/1/37 54/1/39
f 54/1/39 55/1/40 53/1/38
f 55/1/40 54/1/39 56/1/41
f 55/1/40 56/1/41 57/1/42
f 57/1/42 58/1/42 55/1/40
f 57/1/42 59/1/43 58/1/42
f 59/1/43 57/1/42 60/1/44
f 59/1/43 60/1/44 61/1/45
f 61/1/45 60/1/44 62/1/46
f 62/1/46 63/1/47 61/1/45
f 63/1/47 62/1/46 64/1/48
f 63/1/47 64/1/48 65/1/49
f 65/1/49 64/1/48 66/1/50
f 65/1/49 66/1/50 67/1/51
f 67/1/51 66/1/50 68/1/51
f 68/1/51 69/1/52 67/1/51
f 69/1/52 68/1/51 70/1/52
f 71/1/53 72/1/54 73/1/55
f 72/1/54 74/1/54 73/1/55
f 71/1/53 73/1/55 75/1/56
f 75/1/56 76/1/57 71/1/53
f 76/1/57 75/1/56 77/1/58
f 77/1/58 78/1/59 76/1/57
f 78/1/59 77/1/58 79/1/60
f 79/1/60 80/1/61 78/1/59
f 80/1/61 79/1/60 81/1/62
f 82/1/63 80/1/61 81/1/62
f 82/1/63 81/1/62 83/1/64
f 83/1/64 84/1/65 82/1/63
f 84/1/65 83/1/64 85/1/66
f 86/1/66 84/1/65 85/1/66
f 86/1/66 85/1/66 87/1/67
f 87/1/67 88/1/68 86/1/66
f 89/1/69 90/1/69 91/1/70
f 92/1/69 89/1/69 93/1/69
f 91/1/70 93/1/69 89/1/69
f 93/1/69 91/1/70 94/1/69
f 95/1/69 94/1/69 91/1/70
f 96/1/70 91/1/70 90/1/69
f 91/1/70 96/1/70 95/1/69
f 90/1/69 97/1/69 96/1/70
f 98/1/71 95/1/69 96/1/70
f 99/1/69 96/1/70 97/1/69
f 96/1/70 99/1/69 98/1/71
f 100/1/72 98/1/71 99/1/69
f 101/1/73 102/1/74 103/1/75
f 102/1/74 101/1/73 104/1/76
f 105/1/73 102/1/74 104/1/76
f 102/1/74 105/1/73 106/1/73
f 106/1/73 107/1/73 102/1/74
f 107/1/73 106/1/73 108/1/73
f 107/1/73 103/1/75 102/1/74
f 103/1/75 107/1/73 109/1/77
f 109/1/77 110/1/78 103/1/75
f 111/1/73 103/1/75 110/1/78
f 103/1/75 111/1/73 101/1/73
f 112/1/73 101/1/73 111/1/73
f 113/1/73 114/1/73 115/1/73
f 115/1/73 116/1/73 113/1/73
f 115/1/73 117/1/73 116/1/73
f 114/1/73 113/1/73 118/1/73
f 114/1/73 118/1/73 119/1/73
f 119/1/73 120/1/73 114/1/73
f 120/1/73 119/1/73 121/1/73
f 122/1/73 120/1/73 121/1/73
f 122/1/73 121/1/73 123/1/73
f 123/1/73 124/1/73 122/1/73
f 124/1/73 123/1/73 125/1/73
f 126/1/69 127/1/69 128/1/69
f 128/1/69 127/1/69 129/1/69
f 130/1/69 129/1/69 127/1/69
f 129/1/69 130/1/69 131/1/69
f 126/1/69 128/1/69 132/1/69
f 133/1/69 126/1/69 132/1/69
f 134/1/69 133/1/69 132/1/69
f 133/1/69 134/1/69 135/1/69
f 133/1/69 135/1/69 136/1/69
f 137/1/69 136/1/69 135/1/69
f 136/1/69 137/1/69 138/1/69
f 139/1/69 140/1/79 141/1/69
f 142/1/69 141/1/69 140/1/79
f 143/1/69 140/1/79 139/1/69
f 144/1/69 142/1/69 140/1/79
f 142/1/69 144/1/69 145/1/69
f 140/1/79 143/1/69 146/1/69
f 146/1/69 143/1/69 147/1/69
f 148/1/73 149/1/73 150/1/80
f 149/1/73 148/1/73 151/1/73
f 150/1/80 149/1/73 152/1/73
f 153/1/73 150/1/80 152/1/73
f 154/1/73 150/1/80 153/1/73
f 150/1/80 154/1/73 155/1/73
f 155/1/73 154/1/73 156/1/73
f 157/1/73 158/1/73 159/1/73
f 158/1/73 157/1/73 160/1/73
f 160/1/73 157/1/73 161/1/73
f 162/1/73 159/1/73 158/1/73
f 159/1/73 162/1/73 163/1/73
f 163/1/73 162/1/73 164/1/73
f 165/1/73 164/1/73 162/1/73
f 164/1/73 165/1/73 166/1/73
f 165/1/73 167/1/73 166/1/73
f 168/1/73 166/1/73 167/1/73
f 168/1/73 167/1/73 169/1/73
f 170/1/69 171/1/69 172/1/69
f 172/1/69 171/1/69 173/1/69
f 172/1/69 174/1/69 170/1/69
f 174/1/69 175/1/69 170/1/69
f 175/1/69 174/1/69 176/1/69
f 176/1/69 177/1/69 175/1/69
f 177/1/69 176/1/69 178/1/69
f 178/1/69 176/1/69 179/1/69
f 178/1/69 179/1/69 180/1/69
f 181/1/69 180/1/69 179/1/69
f 180/1/69 181/1/69 182/1/69
f 183/1/73 184/1/73 185/1/73
f 184/1/73 183/1/73 186/1/73
f 187/1/69 188/1/69 189/1/69
f 188/1/69 190/1/69 189/1/69
f 191/1/81 192/1/82 193/1/83
f 191/1/81 194/1/84 192/1/82
f 191/1/81 195/1/84 194/1/84
f 193/1/83 192/1/82 196/1/85
f 196/1/85 197/1/86 193/1/83
f 198/1/87 193/1/83 197/1/86
f 199/1/88 200/1/89 201/1/88
f 199/1/88 201/1/88 202/1/88
f 203/1/90 204/1/84 205/1/90
f 204/1/84 206/1/84 205/1/90
f 207/1/91 203/1/90 205/1/90
f 207/1/91 205/1/90 208/1/91
f 209/1/92 207/1/91 208/1/91
f 209/1/92 208/1/91 210/1/93
f 209/1/92 210/1/93 211/1/94
f 211/1/94 210/1/93 212/1/95
f 213/1/96 211/1/94 212/1/95
f 213/1/96 212/1/95 214/1/97
f 213/1/96 214/1/97 215/1/98
f 215/1/98 214/1/97 216/1/98
f 215/1/98 216/1/98 217/1/99
f 217/1/99 216/1/98 218/1/100
f 219/1/84 217/1/99 218/1/100
f 219/1/84 218/1/100 220/1/84
